# xmcd
#
# Track frame offsets: 
#        183
#        10913
#        22453
#        34313
#        46553
#        55745
#        66610
#        78008
#        89660
#        102448
#        113753
#        126595
#        136513
#        147435
#        162243
#        175208
#        185040
#        197340
#        212193
#        222535
#        234885
#        246298
#        256453
#        268840
#
# Disc length: 3729 seconds
#
# Revision: 7
# Processed by: cddbd v1.5.2PL0 Copyright (c) Steve Scherf et al.
# Submitted via: ExactAudioCopyFreeDBPlugin 1.0
#
DISCID=690e8f18
DTITLE=Various Artist - 50 Golden Country Hits-  CD 2
DYEAR=1988
DGENRE=Country
TTITLE0=JIM REEVES - He'll Have To Go
TTITLE1=FREDDY FENDER - Before The Next Teardrop Falls
TTITLE2=TENNESEE ERNIE FORD - Sixteen Tons
TTITLE3=JOHNNY CASH - I Walk The Line
TTITLE4=FRANKIE LAINE - Rawhide
TTITLE5=CONWAY TWITTY - Mona Lisa
TTITLE6=SONNY JAMES - Young Love
TTITLE7=The EVERLY BROTHERS - Let It Be Me
TTITLE8=ELVIS PRESLEY - Don't
TTITLE9=PATSY CLINE - Just Out Of Reach
TTITLE10=JOHNNY HORTON - North To Alaska
TTITLE11=HANK LOCKLIN - Please Help Me I'm Falling
TTITLE12=BILL HAYES - The Ballad Of Davy Crockett
TTITLE13=JOHNNY BURNETT - The Ballad Of The One Eyed Jacks
TTITLE14=KENNY ROGERS - Ruby, Don't Take Your Love To Town
TTITLE15=JOHNNY CASH - Ballad Of A Teenage Queen
TTITLE16=FREDDY FENDER - Wasted Days And Wasted Nights
TTITLE17=The KINGSTON TRIO - Tom Dooley
TTITLE18=WANDA JACKSON - It's Only Make Believe
TTITLE19=JERRY LEE LEWIS - Crazy Arms
TTITLE20=MARTY ROBBINS - A White Sports Coat (And A Pink Carnation)
TTITLE21=ELVIS PRESLEY - Wear My Ring Around Your Neck
TTITLE22=KENNY ROGERS - Ruben James
TTITLE23=HANK LOCKLIN - Send Me The Pillow That You Dream On
EXTD=YEAR: 1988 ID3G: 2
EXTT0=
EXTT1=
EXTT2=
EXTT3=
EXTT4=
EXTT5=
EXTT6=
EXTT7=
EXTT8=
EXTT9=
EXTT10=
EXTT11=
EXTT12=
EXTT13=
EXTT14=
EXTT15=
EXTT16=
EXTT17=
EXTT18=
EXTT19=
EXTT20=
EXTT21=
EXTT22=
EXTT23=
PLAYORDER=
